<svg width="22" height="22" viewBox="0 0 22 22" fill="none" xmlns="http://www.w3.org/2000/svg">
<path fill-rule="evenodd" clip-rule="evenodd" d="M8.73492 8.84255L10.9992 6.67577L13.2635 8.84255C13.4492 9.02089 13.7019 9.12121 13.9655 9.12121C14.2292 9.12121 14.4819 9.02089 14.6676 8.84255C14.8548 8.66566 14.96 8.42487 14.96 8.17367C14.96 7.92248 14.8548 7.68169 14.6676 7.5048L11.7012 4.67857C11.5156 4.50022 11.2629 4.3999 10.9992 4.3999C10.7356 4.3999 10.4828 4.50022 10.2972 4.67857L7.33086 7.5048C6.94313 7.87421 6.94313 8.47314 7.33086 8.84255C7.71858 9.21196 8.34719 9.21196 8.73492 8.84255ZM13.2635 13.1573L10.9992 15.324L8.73491 13.1573C8.4841 12.9183 8.11854 12.825 7.77592 12.9124C7.43331 12.9999 7.16569 13.2549 7.07389 13.5813C6.98209 13.9077 7.08004 14.256 7.33085 14.495L10.2972 17.3212C10.4828 17.4996 10.7356 17.5999 10.9992 17.5999C11.2629 17.5999 11.5156 17.4996 11.7012 17.3212L14.6676 14.495C15.0553 14.1256 15.0553 13.5267 14.6676 13.1573C14.2798 12.7878 13.6512 12.7878 13.2635 13.1573Z" fill="white"/>
</svg>
