<svg width="25" height="24" viewBox="0 0 25 24" fill="none" xmlns="http://www.w3.org/2000/svg">
    <g opacity="0.5">
        <path fill-rule="evenodd" clip-rule="evenodd"
            d="M15.834 4H8.66511C6.22807 4.00245 4.25294 5.97719 4.25 8.41422V15.584C4.25196 18.0217 6.22738 19.9975 8.66511 20H15.834C18.2719 19.9976 20.2476 18.0219 20.25 15.584V8.41422C20.2466 5.97704 18.2712 4.00245 15.834 4ZM18.8304 15.5849C18.8285 17.2387 17.4886 18.5789 15.8349 18.5814H8.6651C7.01137 18.5789 5.6715 17.2387 5.66954 15.5849V8.41515C5.6715 6.76156 7.01151 5.42156 8.6651 5.4196H15.834C17.4879 5.42107 18.8285 6.76122 18.8304 8.41515V15.5849ZM12.2527 7.8773C10.585 7.87622 9.08088 8.87999 8.44193 10.4204C7.80298 11.9609 8.15504 13.7346 9.3339 14.9142C10.5128 16.0938 12.2862 16.447 13.8271 15.8091C15.3679 15.1711 16.3727 13.6677 16.3727 12C16.3707 9.72375 14.5262 7.87886 12.25 7.87641L12.2527 7.8773ZM12.2527 14.7031C11.1593 14.7031 10.1736 14.0444 9.75524 13.0342C9.3369 12.024 9.56833 10.8613 10.3416 10.0883C11.1149 9.31524 12.2777 9.08419 13.2877 9.50286C14.2978 9.92153 14.9561 10.9075 14.9558 12.0008C14.9533 13.4935 13.7426 14.7022 12.25 14.7022L12.2527 14.7031ZM16.5487 6.67472C16.053 6.67547 15.6269 7.02616 15.5309 7.51239C15.4348 7.99862 15.6955 8.48503 16.1536 8.67424C16.6117 8.86345 17.1396 8.70279 17.4147 8.29049C17.6897 7.87819 17.6353 7.32902 17.2847 6.97872C17.0884 6.78344 16.8228 6.67381 16.546 6.67383L16.5487 6.67472Z"
            fill="white" />
    </g>
</svg>