<svg width="25" height="24" viewBox="0 0 25 24" fill="none" xmlns="http://www.w3.org/2000/svg">
<g opacity="0.5">
<g clip-path="url(#clip0_2285_3331)">
<path d="M12.2561 12.2579C14.72 12.2571 16.7157 10.4075 16.7149 8.12747C16.7141 5.84669 14.716 3.99926 12.2529 4C9.7899 4.00074 7.79339 5.85037 7.79419 8.13041C7.79737 10.4097 9.79387 12.2564 12.2561 12.2579ZM12.2561 6.42056C13.2766 6.42056 14.104 7.18646 14.104 8.13114C14.104 9.07583 13.2766 9.84099 12.2561 9.84099C11.2356 9.84099 10.4082 9.07509 10.4082 8.13041C10.4098 7.18646 11.2364 6.4213 12.2561 6.42056ZM14.0595 15.6268C14.9775 15.434 15.8533 15.0978 16.6505 14.6336C17.2577 14.2708 17.4326 13.5219 17.0407 12.9598C16.6553 12.4065 15.8621 12.2395 15.2564 12.5845C13.4197 13.6477 11.0878 13.6477 9.25103 12.5845C8.64143 12.2307 7.83631 12.3999 7.45243 12.9634C7.06696 13.5277 7.24817 14.2753 7.85857 14.6321C7.85936 14.6321 7.86016 14.6328 7.86016 14.6328C8.65653 15.0963 9.53239 15.4326 10.4496 15.6261L7.95553 17.9348C7.45879 18.4204 7.48184 19.187 8.00719 19.6468C8.51188 20.0883 9.30031 20.0883 9.805 19.6468L12.2545 17.3778L14.7057 19.6468C15.2159 20.1185 16.0417 20.1185 16.552 19.6468C17.0614 19.1745 17.0614 18.4101 16.552 17.9377L14.0595 15.6268Z" fill="white"/>
</g>
</g>
<defs>
<clipPath id="clip0_2285_3331">
<rect width="10" height="16" fill="white" transform="translate(7.25 4)"/>
</clipPath>
</defs>
</svg>
