<svg width="25" height="24" viewBox="0 0 25 24" fill="none" xmlns="http://www.w3.org/2000/svg">
<g opacity="0.5">
<g clip-path="url(#clip0_2285_3340)">
<path d="M9.41971 19.6299C16.1364 19.6299 19.8096 14.5924 19.8096 10.224C19.8096 10.081 19.8064 9.93855 19.7992 9.79674C20.514 9.32856 21.1308 8.74889 21.6208 8.0849C20.9665 8.34824 20.2624 8.52548 19.5237 8.60539C20.2777 8.19614 20.8564 7.54869 21.1295 6.77694C20.4127 7.1619 19.6285 7.43327 18.8107 7.57937C18.1444 6.9368 17.1957 6.53491 16.1452 6.53491C14.1286 6.53491 12.4934 8.01536 12.4934 9.84024C12.4934 10.0997 12.5254 10.352 12.5881 10.594C9.55313 10.4558 6.86194 9.14032 5.06085 7.1401C4.73646 7.64459 4.56584 8.21796 4.5664 8.80165C4.5664 9.94857 5.21106 10.961 6.19142 11.5534C5.61152 11.5374 5.04435 11.3956 4.53761 11.1399C4.53706 11.1538 4.53706 11.1673 4.53706 11.1821C4.53706 12.7831 5.79576 14.1198 7.46665 14.4227C7.15284 14.5001 6.82902 14.5392 6.50376 14.539C6.26887 14.539 6.03995 14.5181 5.81747 14.4794C6.28237 15.7929 7.63042 16.7488 9.22871 16.7755C7.97887 17.6623 6.40446 18.1905 4.69331 18.1905C4.40222 18.1907 4.11137 18.1754 3.82227 18.1447C5.43838 19.0825 7.35737 19.6296 9.41989 19.6296" fill="white"/>
</g>
</g>
<defs>
<clipPath id="clip0_2285_3340">
<rect width="24" height="14.6298" fill="white" transform="translate(0.25 5)"/>
</clipPath>
</defs>
</svg>
