<svg width="25" height="24" viewBox="0 0 25 24" fill="none" xmlns="http://www.w3.org/2000/svg">
<g opacity="0.5">
<path d="M20.5652 17.5882C20.4299 17.5882 20.4299 17.5882 20.2946 17.5882C19.3477 17.5882 18.4008 17.5882 17.4539 17.5882C17.3186 17.5882 17.1833 17.5882 17.048 17.4507C16.9128 17.3132 16.6422 17.1757 16.5069 16.9007C15.9658 16.4882 15.56 15.9381 15.1542 15.3881C15.0189 15.3881 14.7484 15.2506 14.6131 15.1131C14.6131 14.9756 14.4778 14.9756 14.3425 14.9756C14.2073 14.9756 14.072 15.1131 14.072 15.2506C14.072 15.3881 13.9367 15.5256 13.9367 15.6631C13.9367 15.9381 13.9367 16.0756 13.9367 16.3506C13.9367 16.6257 13.9367 16.9007 13.8014 17.1757C13.8014 17.3132 13.6662 17.4507 13.6662 17.4507C13.6662 17.5882 13.3956 17.5882 13.2603 17.5882C12.4487 17.5882 11.637 17.5882 10.8254 17.5882C10.6901 17.5882 10.5548 17.5882 10.4196 17.4507C9.60791 17.0382 8.93154 16.6257 8.25517 15.9381C7.57879 15.1131 6.90242 14.288 6.22605 13.4629C5.4144 12.3629 4.60275 11.2628 3.92637 9.8877C3.65582 9.47517 3.38527 8.92513 3.25 8.51261C3.25 8.23759 3.25 8.10008 3.25 7.82506C3.25 7.68755 3.25 7.68755 3.38527 7.68755C3.38527 7.55004 3.52055 7.55004 3.65582 7.55004H3.7911C4.60275 7.55004 5.54967 7.55004 6.36132 7.55004C6.49659 7.55004 6.63187 7.55004 6.76714 7.68755C6.90242 7.82506 7.17297 8.10008 7.30824 8.3751C7.44352 8.65011 7.57879 8.92513 7.71407 9.20015C7.98462 9.8877 8.39044 10.4377 8.79627 11.1253C8.93154 11.4003 9.20209 11.6753 9.47264 11.9503C9.60791 12.0879 9.74319 12.0879 9.87846 12.0879C10.0137 12.0879 10.0137 12.0879 10.0137 11.9503V11.8128C10.0137 10.8503 10.0137 9.75019 10.0137 8.78762C10.0137 8.65011 10.0137 8.65011 10.0137 8.51261C10.0137 8.3751 9.87846 8.3751 9.74319 8.23759C9.60791 8.23759 9.60791 8.23759 9.47264 8.23759C9.20209 8.23759 9.06682 8.10008 9.06682 7.82506C9.06682 7.41253 9.20209 7.13751 9.60791 7C9.74319 7 9.87846 7 10.0137 7C10.8254 7 11.5018 7 12.3134 7C12.584 7 12.7192 7 12.8545 7C12.9898 7 13.1251 7 13.3956 7.13751C13.6662 7.27502 13.9367 7.41253 13.9367 7.82506C13.9367 7.96257 13.9367 7.96257 13.9367 8.10008C13.9367 8.65011 13.9367 9.33766 13.9367 9.8877C13.9367 10.5752 13.9367 11.1253 13.9367 11.8128V11.9503C13.9367 12.0879 14.2073 12.2254 14.3425 12.0879C14.8836 11.6753 15.1542 11.2628 15.4247 10.7128C15.6953 10.1627 15.8306 9.61268 16.1011 9.20015C16.2364 8.78762 16.5069 8.3751 16.6422 7.96257C16.6422 7.82506 16.7775 7.82506 16.7775 7.68755C16.7775 7.55004 16.9128 7.55004 17.048 7.55004C18.1302 7.55004 19.2124 7.55004 20.4299 7.55004C20.7004 7.55004 20.971 7.68755 21.1063 7.82506C21.1063 7.96257 21.2415 7.96257 21.2415 8.10008C21.2415 8.51261 21.1063 8.92513 20.971 9.33766C20.8357 9.75019 20.5652 10.0252 20.2946 10.3002C19.7535 10.9878 19.2124 11.5378 18.8066 12.2254C18.6713 12.3629 18.5361 12.6379 18.5361 12.7754C18.4008 12.9129 18.5361 13.0504 18.5361 13.1879C18.6713 13.4629 18.9419 13.738 19.0771 13.8755C19.6182 14.4255 20.0241 14.9756 20.5652 15.5256C20.7004 15.6631 20.8357 15.9381 20.971 16.0756L21.1063 16.2131C21.5121 16.7632 20.971 17.5882 20.5652 17.5882Z" fill="white"/>
</g>
</svg>
