<svg width="28" height="28" viewBox="0 0 28 28" fill="none" xmlns="http://www.w3.org/2000/svg">
<path fill-rule="evenodd" clip-rule="evenodd" d="M14 26.8334C7 23.715 3.5 20.6039 3.5 17.5001V5.83342C3.5 4.93789 3.8437 4.72976 4.79492 4.15375L4.79493 4.15375C5.08293 3.97935 5.42662 3.77122 5.83333 3.50008C6.02209 3.37424 9.99041 1.16675 14 1.16675C17.4945 1.16675 20.4167 2.33341 22.1667 3.50008C22.5734 3.77122 22.9171 3.97935 23.2051 4.15375C24.1563 4.72976 24.5 4.93789 24.5 5.83342C24.523 6.08685 24.5117 11.4766 24.5045 14.9271V14.9272C24.502 16.1039 24.5 17.0551 24.5 17.5001C24.5 20.6112 21 23.7223 14 26.8334ZM22.1667 17.5001C22.1667 17.2314 22.1674 16.7812 22.1688 16.0472L22.1735 13.7684C22.175 13.0312 22.1762 12.3985 22.1772 11.7948C22.1815 9.19066 22.1804 6.95554 22.1778 6.26425L22.0177 6.16486L22.0176 6.16481C21.6404 5.93076 21.1486 5.62569 20.8724 5.44153C19.15 4.29332 16.6369 3.50008 14 3.50008C11.4778 3.50008 8.20007 4.72657 7.12763 5.44153C6.85141 5.62568 6.3597 5.93073 5.98243 6.16477L5.83333 6.25731V17.5001C5.83333 19.2599 8.43396 21.6636 14.0011 24.2691C19.5675 21.6694 22.1667 19.2667 22.1667 17.5001ZM17.8417 9.67512L12.8333 14.6835L10.1583 12.0085L8.50838 13.6584L12.8333 17.9833L19.4916 11.325L17.8417 9.67512Z" fill="#EB5757"/>
</svg>
