<svg width="28" height="28" viewBox="0 0 28 28" fill="#EB5757" xmlns="http://www.w3.org/2000/svg">
    <path fill-rule="evenodd" clip-rule="evenodd"
        d="M18.0258 1.63652C19.2649 1.2825 20.5564 1.99998 20.9104 3.23906C20.9699 3.44752 21.0002 3.66327 21.0002 3.88008V5.83339H23.3335C24.6222 5.83339 25.6668 6.87806 25.6668 8.16673V22.1667C25.6668 23.4554 24.6222 24.5001 23.3335 24.5001H4.66683C3.37816 24.5001 2.3335 23.4554 2.3335 22.1667H2.36465C2.34394 22.0413 2.3335 21.9142 2.3335 21.7867V7.88008C2.3335 6.83829 3.02411 5.92272 4.02581 5.63652L18.0258 1.63652ZM11.8302 22.1667H23.3335V12.8334H21.0002V17.7867C21.0002 18.8285 20.3095 19.7441 19.3078 20.0303L11.8302 22.1667ZM23.3335 8.16673V10.5001H21.0002V8.16673H23.3335ZM4.66683 7.88008V21.7867L18.6668 17.7867V3.88008L4.66683 7.88008ZM16.3335 10.5001C16.3335 11.1444 15.8112 11.6667 15.1668 11.6667C14.5225 11.6667 14.0002 11.1444 14.0002 10.5001C14.0002 9.85573 14.5225 9.33339 15.1668 9.33339C15.8112 9.33339 16.3335 9.85573 16.3335 10.5001Z"
         />
</svg>