<svg width="28" height="28" viewBox="0 0 28 28" fill="none" xmlns="http://www.w3.org/2000/svg">
    <path fill-rule="evenodd" clip-rule="evenodd"
        d="M14.0002 25.6666C16.0121 25.6666 17.9517 25.1556 19.6696 24.1986L24.6106 24.6104L24.1989 19.6693C25.1558 17.9514 25.6668 16.0119 25.6668 13.9999C25.6668 7.5566 20.4435 2.33325 14.0002 2.33325C7.55684 2.33325 2.3335 7.5566 2.3335 13.9999C2.3335 20.4432 7.55684 25.6666 14.0002 25.6666ZM18.801 22.0057L19.1237 21.8117L22.0564 22.0561L21.812 19.1235L22.006 18.8007C22.8704 17.3627 23.3335 15.7167 23.3335 13.9999C23.3335 8.84526 19.1548 4.66659 14.0002 4.66659C8.8455 4.66659 4.66683 8.84526 4.66683 13.9999C4.66683 19.1546 8.8455 23.3333 14.0002 23.3333C15.717 23.3333 17.363 22.8701 18.801 22.0057ZM14.0005 19.8313C14.6451 19.8313 15.1676 19.309 15.1676 18.6647C15.1676 18.0203 14.6451 17.498 14.0005 17.498C13.356 17.498 12.8335 18.0203 12.8335 18.6647C12.8335 19.309 13.356 19.8313 14.0005 19.8313ZM12.8335 16.3333H15.1668V15.1666C15.1668 15.1694 15.1723 15.1634 15.1848 15.1496C15.2154 15.1159 15.288 15.0359 15.4241 14.928C15.5409 14.8353 15.5772 14.8112 15.8724 14.6241C16.8772 13.9871 17.5002 12.8794 17.5002 11.6666C17.5002 9.73359 15.9332 8.16659 14.0002 8.16659C12.0672 8.16659 10.5002 9.73359 10.5002 11.6666H12.8335C12.8335 11.0223 13.3558 10.4999 14.0002 10.4999C14.6445 10.4999 15.1668 11.0223 15.1668 11.6666C15.1668 12.0718 14.9598 12.4399 14.6231 12.6534C14.2454 12.8929 14.1826 12.9344 13.9739 13.1C13.28 13.6505 12.8335 14.3064 12.8335 15.1666V16.3333Z"
        fill="#EB5757" />
</svg>