<svg width="22" height="16" viewBox="0 0 22 16" fill="#EB5757" xmlns="http://www.w3.org/2000/svg">
    <path fill-rule="evenodd" clip-rule="evenodd"
        d="M1.95066 5.98456L2.62058 10.9756H2.74965C3.01062 10.0396 3.64332 9.25702 4.47803 8.79782C4.9887 8.51679 5.57508 8.35678 6.19842 8.35672C7.84057 8.35672 9.22615 9.46688 9.64679 10.9758H12.7894C12.8419 10.7871 12.9096 10.6048 12.991 10.43C13.0037 10.4027 13.0167 10.3756 13.0301 10.3486C13.6159 9.16915 14.833 8.35672 16.2378 8.35672C17.5299 8.35672 18.6632 9.04411 19.2926 10.0723C19.4631 10.3507 19.5966 10.6542 19.6862 10.9758H20.0071L19.729 7.12521L16.569 6.77961C16.2908 6.74871 16.039 6.59815 15.8805 6.36546L13.1937 2.42045H3.6845L1.95066 5.98456ZM13.7015 0.5C14.0202 0.5 14.3163 0.658243 14.4947 0.919048L17.219 4.91859L20.7346 5.30325C21.1951 5.35407 21.5537 5.72666 21.5875 6.18864L21.9975 11.8669C22.0167 12.1333 21.9235 12.3952 21.7427 12.5903C21.5609 12.7856 21.3062 12.8963 21.0397 12.8963H19.6863C19.2658 14.4053 17.8794 15.5154 16.2378 15.5154C14.5961 15.5154 13.2096 14.4052 12.7892 12.8963H9.64656C9.22609 14.4053 7.83961 15.5154 6.19805 15.5154C4.55639 15.5154 3.16994 14.4053 2.7495 12.8964L2.18607 12.8965H1.78045C1.29935 12.8965 0.892612 12.541 0.828569 12.0638L0.00845525 5.9528L0.00830266 5.95166C-0.0162068 5.76592 0.0136356 5.57564 0.096672 5.40502L2.22029 1.0399C2.38107 0.710011 2.71614 0.5 3.08381 0.5H13.7015ZM7.85723 11.9362V11.9362H7.85679V11.9362H7.85723ZM7.85679 11.9362H4.53975L4.53946 11.9596C4.55201 12.863 5.2918 13.595 6.19805 13.595C7.1122 13.595 7.85679 12.8503 7.85679 11.9362V11.9362ZM7.85679 11.9362C7.85676 11.0221 7.11207 10.2775 6.19805 10.2775C5.8964 10.2775 5.61321 10.3586 5.36915 10.5C4.87382 10.7874 4.53975 11.3237 4.53975 11.9359V11.9362L7.85679 11.9362ZM17.8968 11.9362V11.9362H17.8965V11.9362H17.8968ZM17.8965 11.9362H14.5793L14.5791 11.9538C14.5886 12.8599 15.3296 13.595 16.2378 13.595C17.1519 13.595 17.8965 12.8503 17.8965 11.9362V11.9362ZM17.8965 11.9362C17.8965 11.0221 17.1518 10.2775 16.2378 10.2775C15.7968 10.2775 15.3954 10.4507 15.0978 10.7327C14.7787 11.0352 14.5793 11.4629 14.5793 11.9359V11.9362L17.8965 11.9362ZM13.6191 5.73752C14.1495 5.73752 14.5795 6.16713 14.5795 6.69785C14.5795 7.2286 14.1494 7.65819 13.6191 7.65819H5.76207C5.23175 7.65819 4.80173 7.22858 4.80173 6.69785C4.80173 6.16711 5.23178 5.73752 5.76207 5.73752H13.6191Z"
        fill="#EB5757" />
</svg>