<svg width="24" height="24" viewBox="0 0 24 24" fill="#EB5757" xmlns="http://www.w3.org/2000/svg">
    <path fill-rule="evenodd" clip-rule="evenodd"
        d="M12.0005 4C9.27292 4 6.66479 5.43062 4.23417 7.78115C3.40495 8.58305 2.65477 9.43916 1.99438 10.2956C1.59587 10.8124 1.31294 11.219 1.15803 11.4612L0.813431 12L1.15803 12.5388C1.31294 12.781 1.59587 13.1876 1.99438 13.7044C2.65477 14.5608 3.40495 15.417 4.23417 16.2189C6.66479 18.5694 9.27292 20 12.0005 20C14.728 20 17.3361 18.5694 19.7668 16.2189C20.596 15.417 21.3462 14.5608 22.0066 13.7044C22.4051 13.1876 22.688 12.781 22.8429 12.5388L23.1875 12L22.8429 11.4612C22.688 11.219 22.4051 10.8124 22.0066 10.2956C21.3462 9.43916 20.596 8.58305 19.7668 7.78115C17.3361 5.43062 14.728 4 12.0005 4ZM3.57821 11.5169C4.18285 10.7327 4.8703 9.9482 5.6245 9.21885C7.71796 7.19438 9.89539 6 12.0005 6C14.1055 6 16.283 7.19438 18.3764 9.21885C19.1306 9.9482 19.8181 10.7327 20.4227 11.5169C20.5533 11.6862 20.674 11.8478 20.7843 12C20.674 12.1522 20.5533 12.3138 20.4227 12.4831C19.8181 13.2673 19.1306 14.0518 18.3764 14.7811C16.283 16.8056 14.1055 18 12.0005 18C9.89539 18 7.71796 16.8056 5.6245 14.7811C4.8703 14.0518 4.18285 13.2673 3.57821 12.4831C3.44762 12.3138 3.32695 12.1522 3.21663 12C3.32695 11.8478 3.44762 11.6862 3.57821 11.5169ZM16.0005 12C16.0005 14.2091 14.2096 16 12.0005 16C9.79133 16 8.00047 14.2091 8.00047 12C8.00047 9.79086 9.79133 8 12.0005 8C14.2096 8 16.0005 9.79086 16.0005 12ZM10.0005 12C10.0005 13.1046 10.8959 14 12.0005 14C13.105 14 14.0005 13.1046 14.0005 12C14.0005 10.8954 13.105 10 12.0005 10C10.8959 10 10.0005 10.8954 10.0005 12Z"
         />
</svg>