<svg width="24" height="24" viewBox="0 0 24 24" fill="#EB5757" xmlns="http://www.w3.org/2000/svg">
    <path fill-rule="evenodd" clip-rule="evenodd"
        d="M12.0002 0C12.5693 0.00117522 13.1426 0.495767 13.1426 1.45949L13.1419 1.96851C13.536 2.2154 13.8423 2.58724 14.005 3.02795H19.7734C20.0747 3.02795 20.3351 3.21157 20.446 3.47188L20.4475 3.47528L23.6251 12.6193C23.642 12.6685 23.6414 12.7179 23.6126 12.7615C23.5839 12.805 23.5385 12.829 23.4865 12.829H22.23C22.1686 12.829 22.1101 12.7968 22.0916 12.739L19.7797 5.57717L17.4585 12.739C17.4397 12.7972 17.3817 12.829 17.3201 12.829H16.0643C16.0118 12.829 15.967 12.805 15.9382 12.7615C15.9095 12.7176 15.9091 12.6685 15.9261 12.6193L18.6734 4.47987H14.0051C13.8423 4.92092 13.536 5.29295 13.1419 5.53965V20.5802C13.1419 20.8612 13.2174 21.1022 13.377 21.3337C13.5809 21.6292 13.8125 21.843 14.0683 22H18C18.5523 22 19 22.4477 19 23C19 23.5523 18.5523 24 18 24H17.5259H6.47324H6C5.44772 24 5 23.5523 5 23C5 22.4477 5.44772 22 6 22H9.93101C10.1867 21.843 10.4183 21.6292 10.6222 21.3337C10.7818 21.1022 10.8573 20.8611 10.8573 20.5802V5.53965C10.4632 5.29295 10.1569 4.92092 9.99411 4.47987H5.32577L8.06522 12.6193C8.08182 12.6688 8.08182 12.7179 8.05307 12.7615C8.02432 12.805 7.97914 12.829 7.92661 12.829H6.67015C6.60905 12.829 6.55053 12.7968 6.5317 12.739L4.21957 5.57717L1.88482 12.7395C1.86635 12.7973 1.80782 12.8291 1.74673 12.8291H0.489437C0.436901 12.8291 0.391722 12.8051 0.362972 12.7612C0.334393 12.7177 0.334049 12.6682 0.351334 12.6191L3.55201 3.47547L3.55355 3.47207C3.66448 3.21194 3.92493 3.02814 4.22612 3.02814H9.99452C10.1573 2.58744 10.4636 2.21541 10.8577 1.96871V1.45949C10.8577 0.495811 11.431 0.00119019 12.0002 0ZM19.7375 18.0168C17.6538 18.0168 15.9125 16.5573 15.4933 14.611C15.4438 14.3823 15.4959 14.1649 15.6439 13.9826C15.7923 13.8007 15.9954 13.7043 16.2312 13.7043H23.2438C23.4798 13.7043 23.6828 13.8007 23.8308 13.9826C23.979 14.1647 24.0312 14.3823 23.9821 14.611C23.5628 16.5573 21.8217 18.0168 19.7375 18.0168ZM4.26266 18.0168C2.17846 18.0168 0.437359 16.5573 0.0184307 14.611C-0.0310249 14.3823 0.0207195 14.1649 0.169088 13.9826C0.317427 13.8007 0.520231 13.7043 0.756048 13.7043H7.76864C8.00461 13.7043 8.20757 13.8007 8.3556 13.9826C8.5038 14.1647 8.55633 14.3823 8.50688 14.611C8.08762 16.5573 6.3465 18.0168 4.26266 18.0168ZM12.012 2.91468L12.0003 2.91502L11.9887 2.91468C11.5222 2.91468 11.144 3.29077 11.144 3.75426C11.144 4.21775 11.5222 4.59384 11.9887 4.59384L12.0003 4.5935L12.012 4.59384C12.4785 4.59384 12.8567 4.21775 12.8567 3.75426C12.8567 3.29077 12.4785 2.91468 12.012 2.91468Z"
         />
</svg>